#N canvas 185 17 950 940.938 12;
#X obj 263 913 t f f;
#X obj 263 992 pack f f f;
#X msg 263 1021 \$1 \, \$2 \$3;
#X obj 263 1110 vline~;
#X obj 263 1139 tabread4~ soundFile;
#X obj 263 1188 *~;
#X floatatom 484 765 5 0 0 0 - - -, f 5;
#X obj 466 863 *;
#X obj 295 957 +;
#X obj 707 923 / 1;
#X floatatom 607 804 5 0 0 0 - - -, f 5;
#X obj 707 892 t b f;
#X obj 187 428 bng 15 250 50 0 empty empty empty 17 7 0 10 -262144
-1 -1;
#X floatatom 263 663 5 0 0 0 - - -, f 5;
#X obj 263 692 +, f 9;
#X obj 263 622 random 30, f 22;
#X floatatom 414 432 5 0 0 0 - - -, f 5;
#X obj 1047 1136 vline~;
#X obj 1047 1078 pack f f f, f 13;
#X msg 1047 1107 1 \$1 \, 0 \$2 \$3;
#X floatatom 1047 1046 5 0 10000 0 - - -, f 5;
#X floatatom 1092 978 5 0 0 0 - - -, f 5;
#X text 992 1047 attack;
#X obj 369 770 bng 15 250 50 0 empty empty empty 17 7 0 10 -262144
-1 -1;
#X text 526 765 duration;
#X text 664 777 speed;
#X text 142 1021 start \, end dur;
#X obj 707 725 hsl 81 15 0 2 0 1 empty empty empty -2 -8 0 10 -262144
-1 -1 0 1;
#X obj 1168 492 int;
#X obj 281 488 hsl 71 15 0 1 0 1 empty empty empty -2 -8 0 10 -262144
-1 -1 0 1;
#X obj 263 536 *;
#X floatatom 263 565 19 0 0 0 - - -, f 19;
#X obj 263 593 t b f, f 14;
#X obj 263 1221 outlet~;
#X obj 281 376 r start;
#X obj 414 376 r jitter;
#X obj 487 376 r duration;
#X obj 607 376 r sr;
#X obj 707 376 r speed;
#X obj 1047 376 r attack;
#X obj 1168 377 r soundLength;
#X obj 68 376 inlet midi note;
#X floatatom 68 405 5 0 0 0 - - -, f 5;
#X floatatom 313 731 9 0 0 0 - - -, f 9;
#X obj 901 376 r randomSpeed;
#X obj 263 507 f;
#X obj 466 812 f;
#X obj 1092 1010 t f f;
#X obj 1006 997 bng 15 250 50 0 empty empty empty 17 7 0 10 -262144
-1 -1;
#X obj 263 731 t f b;
#X obj 790 568 bng 15 250 50 0 empty empty empty 17 7 0 10 -262144
-1 -1;
#X floatatom 707 805 5 0 0 0 - - -, f 5;
#X obj 707 833 +;
#X obj 901 770 t b f, f 8;
#X floatatom 707 862 5 0 1 0 - - -, f 5;
#X floatatom 901 408 5 0 2 0 - - -, f 5;
#X obj 829 441 sel 0;
#X obj 829 470 bng 15 250 50 0 empty empty empty 17 7 0 10 -262144
-1 -1;
#X floatatom 861 528 5 0 0 0 - - -, f 5;
#X msg 829 528 0;
#X floatatom 829 557 5 0 0 0 - - -, f 5;
#X obj 790 619 random;
#X floatatom 901 682 4 0 0 0 - - -, f 4;
#X obj 901 586 t b f;
#X obj 933 653 / 2;
#X floatatom 933 682 4 0 0 0 - - -, f 4;
#X obj 901 713 -;
#X floatatom 901 742 9 0 0 0 - - -, f 9;
#X obj 829 585 * 1000;
#X obj 790 647 / 1000;
#X obj 790 497 t b b, f 6;
#X obj 771 890 pack 0 12;
#X obj 771 919 line;
#X obj 552 115 bng 15 250 50 0 empty empty empty 17 7 0 10 -262144
-1 -1;
#X obj 552 86 loadbang;
#X floatatom 552 168 5 0 0 0 - - -, f 5;
#X obj 552 139 f \$1;
#X obj 486 49 r messages;
#X obj 486 78 t a b;
#X obj 486 178 route 0;
#X obj 486 217 route start jitter duration speed randomSpeed attack
;
#X obj 847 256 print reject;
#X connect 0 0 1 0;
#X connect 0 1 8 0;
#X connect 1 0 2 0;
#X connect 2 0 3 0;
#X connect 3 0 4 0;
#X connect 4 0 5 0;
#X connect 5 0 33 0;
#X connect 6 0 46 1;
#X connect 7 0 8 1;
#X connect 8 0 1 1;
#X connect 9 0 1 2;
#X connect 9 0 21 0;
#X connect 9 0 48 0;
#X connect 10 0 7 1;
#X connect 11 0 9 0;
#X connect 11 1 9 1;
#X connect 12 0 29 0;
#X connect 12 0 45 0;
#X connect 12 0 50 0;
#X connect 13 0 14 0;
#X connect 14 0 43 0;
#X connect 14 0 49 0;
#X connect 15 0 13 0;
#X connect 16 0 15 1;
#X connect 17 0 5 1;
#X connect 18 0 19 0;
#X connect 19 0 17 0;
#X connect 20 0 18 0;
#X connect 21 0 47 0;
#X connect 23 0 46 0;
#X connect 27 0 51 0;
#X connect 28 0 30 1;
#X connect 29 0 45 1;
#X connect 30 0 31 0;
#X connect 31 0 32 0;
#X connect 32 0 15 0;
#X connect 32 1 14 1;
#X connect 34 0 29 0;
#X connect 35 0 16 0;
#X connect 36 0 6 0;
#X connect 37 0 10 0;
#X connect 38 0 27 0;
#X connect 39 0 20 0;
#X connect 40 0 28 0;
#X connect 41 0 42 0;
#X connect 42 0 12 0;
#X connect 44 0 55 0;
#X connect 45 0 30 0;
#X connect 46 0 7 0;
#X connect 46 0 9 0;
#X connect 47 0 18 1;
#X connect 47 1 18 2;
#X connect 48 0 20 0;
#X connect 49 0 0 0;
#X connect 49 1 23 0;
#X connect 50 0 61 0;
#X connect 51 0 52 0;
#X connect 52 0 54 0;
#X connect 53 0 51 0;
#X connect 53 1 52 1;
#X connect 54 0 71 0;
#X connect 54 0 11 0;
#X connect 55 0 56 0;
#X connect 55 0 63 0;
#X connect 56 0 57 0;
#X connect 56 1 58 0;
#X connect 57 0 70 0;
#X connect 58 0 60 0;
#X connect 59 0 60 0;
#X connect 60 0 68 0;
#X connect 61 0 69 0;
#X connect 62 0 66 0;
#X connect 63 0 62 0;
#X connect 63 1 64 0;
#X connect 64 0 65 0;
#X connect 65 0 66 1;
#X connect 66 0 67 0;
#X connect 67 0 53 0;
#X connect 68 0 61 1;
#X connect 69 0 62 0;
#X connect 70 0 50 0;
#X connect 70 1 59 0;
#X connect 71 0 72 0;
#X connect 73 0 76 0;
#X connect 74 0 73 0;
#X connect 76 0 75 0;
#X connect 76 0 79 1;
#X connect 77 0 78 0;
#X connect 78 0 79 0;
#X connect 78 1 73 0;
#X connect 79 0 80 0;
#X connect 80 0 29 0;
#X connect 80 1 16 0;
#X connect 80 2 6 0;
#X connect 80 3 27 0;
#X connect 80 4 55 0;
#X connect 80 5 20 0;
#X connect 80 6 81 0;
