#N canvas 51 23 1348 916 12;
#X obj 127 45 r sampleRate;
#X floatatom 127 174 5 0 0 0 - - -, f 5;
#X obj 222 45 r sampleLength;
#X obj 475 45 r sampleStart;
#X obj 598 45 r sampleEnd;
#X obj 698 45 r loopType;
#X obj 127 289 phasor~;
#X obj 127 626 tabread4~ grainer;
#X obj 127 597 *~, f 14;
#X floatatom 127 261 5 0 0 0 - - -, f 5;
#X obj 475 476 hsl 128 15 0 1 0 1 empty empty empty -2 -8 0 10 -262144
-1 -1 1600 1;
#X obj 598 379 hsl 128 15 -1 1 0 1 empty empty empty -2 -8 0 10 -262144
-1 -1 8065 1;
#X obj 127 569 +~;
#X obj 127 498 *~;
#X obj 152 325 expr~ if($v1 > 0.5 \, 1 - $v1 \, $v1);
#X obj 152 354 *~ 2;
#X obj 127 415 mux~;
#X obj 698 341 tgl 15 0 empty empty empty 17 7 0 10 -262144 -1 -1 0
1;
#X obj 798 45 r resetSpeed;
#X obj 798 74 bng 15 250 50 0 empty empty empty 17 7 0 10 -262144 -1
-1;
#X obj 798 105 t b b;
#X floatatom 222 174 5 0 0 0 - - -, f 5;
#X obj 127 212 /;
#X floatatom 338 212 5 0 0 0 - - -, f 5;
#X text 232 353 triangle;
#X obj 127 875 outlet~ L;
#X obj 257 875 outlet~ R;
#X obj 257 835 *~;
#X obj 127 835 *~;
#X msg 145 749 \$1 10;
#X obj 145 778 line~;
#X obj 145 807 cos~;
#X msg 275 749 \$1 10;
#X obj 275 778 line~;
#X obj 275 807 cos~;
#X obj 275 717 + 0.75;
#X obj 1058 469 hsl 128 15 0 1 0 1 empty empty empty -2 -8 0 10 -262144
-1 -1 6350 1;
#X obj 275 685 / 4;
#X msg 1058 442 0.5;
#X obj 1238 45 r randomPan;
#X obj 1127 260 bng 15 250 50 0 empty empty empty 17 7 0 10 -262144
-1 -1;
#X floatatom 1238 496 5 0 0 0 - - -, f 5;
#X obj 1238 524 +, f 8;
#X obj 1238 467 t b f, f 8;
#X floatatom 1238 553 5 0 1 0 - - -, f 5;
#X floatatom 1238 70 5 0 1 0 - - -, f 5;
#X obj 1166 103 sel 0;
#X obj 1166 132 bng 15 250 50 0 empty empty empty 17 7 0 10 -262144
-1 -1;
#X floatatom 1198 200 5 0 0 0 - - -, f 5;
#X msg 1166 200 0;
#X floatatom 1166 229 5 0 0 0 - - -, f 5;
#X obj 1127 291 random;
#X floatatom 1238 365 4 0 0 0 - - -, f 4;
#X obj 1238 266 t b f;
#X obj 1270 336 / 2;
#X floatatom 1270 365 4 0 0 0 - - -, f 4;
#X obj 1238 400 -;
#X floatatom 1238 429 9 0 0 0 - - -, f 9;
#X obj 1166 257 * 1000;
#X obj 1127 324 / 1000;
#X obj 1134 159 t b b;
#X obj 1238 581 pack 0 12;
#X obj 1238 610 line;
#X obj 127 675 *~;
#X obj 338 45 inlet frequency;
#N canvas 727 239 450 323 panner 0;
#X obj 177 208 *~;
#X obj 47 208 *~;
#X msg 65 122 \$1 10;
#X obj 65 151 line~;
#X obj 65 180 cos~;
#X msg 195 122 \$1 10;
#X obj 195 151 line~;
#X obj 195 180 cos~;
#X obj 195 90 + 0.75;
#X obj 195 58 / 4;
#X obj 47 14 inlet~;
#X obj 195 12 inlet;
#X obj 47 237 outlet~;
#X obj 177 237 outlet~;
#X connect 0 0 13 0;
#X connect 1 0 12 0;
#X connect 2 0 3 0;
#X connect 3 0 4 0;
#X connect 4 0 1 1;
#X connect 5 0 6 0;
#X connect 6 0 7 0;
#X connect 7 0 0 1;
#X connect 8 0 5 0;
#X connect 9 0 8 0;
#X connect 9 0 2 0;
#X connect 10 0 1 0;
#X connect 10 0 0 0;
#X connect 11 0 9 0;
#X restore 492 768 pd panner;
#N canvas 378 73 763 810 adsr 0;
#X obj 126 537 cnv 15 23 33 empty empty empty 20 12 0 14 -248832 -66577
0;
#X obj 486 474 cnv 15 23 33 empty empty empty 20 12 0 14 -248832 -66577
0;
#X obj 450 441 cnv 15 23 33 empty empty empty 20 12 0 14 -248832 -66577
0;
#X obj 451 375 cnv 15 23 33 empty empty empty 20 12 0 14 -248832 -66577
0;
#X obj 463 332 cnv 15 23 33 empty empty empty 20 12 0 14 -248832 -66577
0;
#X obj 348 333 cnv 15 23 33 empty empty empty 20 12 0 14 -248832 -66577
0;
#X obj 311 297 cnv 15 23 33 empty empty empty 20 12 0 14 -248832 -66577
0;
#X obj 77 63 inlet;
#X obj 346 126 inlet;
#X text 73 38 trigger;
#X obj 77 91 sel 0;
#X obj 300 194 t b;
#X obj 300 302 f \$1, f 7;
#X obj 300 338 pack 0 \$2, f 15;
#X obj 402 125 inlet;
#X obj 438 338 del \$2;
#X obj 264 652 line~;
#X obj 438 381 f \$4, f 19;
#X obj 438 480 pack 0 \$3;
#X obj 498 125 inlet;
#X obj 568 125 inlet;
#X obj 641 125 inlet;
#X msg 102 159 stop;
#X obj 77 543 pack 0 \$5, f 81;
#X text 346 99 level;
#X obj 438 447 * \$1;
#X obj 264 677 outlet~;
#X obj 438 414 * 0.01;
#X text 398 98 attack;
#X text 499 99 decay;
#X text 561 100 sustain;
#X text 638 100 release;
#X obj 232 126 moses;
#X obj 232 164 t b b;
#X msg 264 338 0;
#X text 350 83 peak;
#X obj 324 677 outlet;
#X obj 324 652 line 0 1;
#X floatatom 357 622 5 0 0 0 - - -, f 5;
#X connect 7 0 10 0;
#X connect 8 0 12 1;
#X connect 8 0 25 1;
#X connect 10 0 22 0;
#X connect 10 0 23 0;
#X connect 10 1 32 0;
#X connect 11 0 12 0;
#X connect 11 0 15 0;
#X connect 12 0 13 0;
#X connect 13 0 16 0;
#X connect 13 0 37 0;
#X connect 14 0 13 1;
#X connect 14 0 15 1;
#X connect 15 0 17 0;
#X connect 16 0 26 0;
#X connect 17 0 27 0;
#X connect 18 0 16 0;
#X connect 18 0 37 0;
#X connect 19 0 18 1;
#X connect 20 0 17 1;
#X connect 21 0 23 1;
#X connect 22 0 15 0;
#X connect 23 0 16 0;
#X connect 23 0 37 0;
#X connect 25 0 18 0;
#X connect 27 0 25 0;
#X connect 32 0 33 0;
#X connect 32 1 11 0;
#X connect 33 0 11 0;
#X connect 33 1 34 0;
#X connect 34 0 16 0;
#X connect 34 0 37 0;
#X connect 37 0 36 0;
#X connect 38 0 37 2;
#X restore 762 762 pd adsr 100 10 30 400 300;
#X floatatom 907 401 5 0 1000 0 - - -, f 5;
#X floatatom 985 401 5 0 1000 0 - - -, f 5;
#X obj 907 45 r attack;
#X obj 985 45 r decay;
#X obj 338 114 mtof;
#X obj 1058 45 r pan;
#X obj 889 561 vline~;
#X msg 889 532 1 \$1 \, 0 \$2 \$1;
#X obj 889 474 f;
#X obj 889 503 pack f f;
#X obj 889 439 bng 15 250 50 0 empty empty empty 17 7 0 10 -262144
-1 -1;
#X obj 598 403 pack 0 60;
#X obj 598 432 vline~;
#X obj 475 500 pack 0 60;
#X obj 475 529 vline~;
#X connect 0 0 1 0;
#X connect 1 0 22 0;
#X connect 2 0 21 0;
#X connect 3 0 10 0;
#X connect 4 0 11 0;
#X connect 5 0 17 0;
#X connect 6 0 14 0;
#X connect 6 0 16 0;
#X connect 7 0 63 0;
#X connect 8 0 7 0;
#X connect 9 0 6 0;
#X connect 10 0 80 0;
#X connect 11 0 78 0;
#X connect 12 0 8 0;
#X connect 13 0 12 0;
#X connect 14 0 15 0;
#X connect 15 0 16 1;
#X connect 16 0 13 0;
#X connect 17 0 16 0;
#X connect 18 0 19 0;
#X connect 19 0 20 0;
#X connect 20 0 1 0;
#X connect 20 1 21 0;
#X connect 21 0 8 1;
#X connect 21 0 22 1;
#X connect 22 0 9 0;
#X connect 23 0 9 0;
#X connect 27 0 26 0;
#X connect 28 0 25 0;
#X connect 29 0 30 0;
#X connect 30 0 31 0;
#X connect 31 0 28 1;
#X connect 32 0 33 0;
#X connect 33 0 34 0;
#X connect 34 0 27 1;
#X connect 35 0 32 0;
#X connect 36 0 41 0;
#X connect 37 0 35 0;
#X connect 37 0 29 0;
#X connect 38 0 36 0;
#X connect 39 0 45 0;
#X connect 40 0 51 0;
#X connect 41 0 42 0;
#X connect 42 0 44 0;
#X connect 43 0 41 0;
#X connect 43 1 42 1;
#X connect 44 0 61 0;
#X connect 45 0 46 0;
#X connect 45 0 53 0;
#X connect 46 0 47 0;
#X connect 46 1 48 0;
#X connect 47 0 60 0;
#X connect 48 0 50 0;
#X connect 49 0 50 0;
#X connect 50 0 58 0;
#X connect 51 0 59 0;
#X connect 52 0 56 0;
#X connect 53 0 52 0;
#X connect 53 1 54 0;
#X connect 54 0 55 0;
#X connect 55 0 56 1;
#X connect 56 0 57 0;
#X connect 57 0 43 0;
#X connect 58 0 51 1;
#X connect 59 0 52 0;
#X connect 60 0 40 0;
#X connect 60 1 49 0;
#X connect 61 0 62 0;
#X connect 62 0 37 0;
#X connect 63 0 27 0;
#X connect 63 0 28 0;
#X connect 64 0 40 0;
#X connect 64 0 71 0;
#X connect 64 0 77 0;
#X connect 67 0 75 1;
#X connect 68 0 76 1;
#X connect 69 0 67 0;
#X connect 70 0 68 0;
#X connect 71 0 23 0;
#X connect 72 0 36 0;
#X connect 73 0 63 1;
#X connect 74 0 73 0;
#X connect 75 0 76 0;
#X connect 76 0 74 0;
#X connect 77 0 75 0;
#X connect 78 0 79 0;
#X connect 79 0 13 1;
#X connect 80 0 81 0;
#X connect 81 0 12 1;
